<?xml version="1.0" encoding="UTF-8" standalone="no"?>
<!-- Created with Inkscape (http://www.inkscape.org/) -->

<svg
   width="73.723999"
   height="14.625"
   viewBox="0 0 19.506141 3.8695313"
   version="1.1"
   id="svg1"
   xml:space="preserve"
   inkscape:version="1.3.2 (091e20e, 2023-11-25, custom)"
   sodipodi:docname="ks-23m_killfeed.svg"
   xmlns:inkscape="http://www.inkscape.org/namespaces/inkscape"
   xmlns:sodipodi="http://sodipodi.sourceforge.net/DTD/sodipodi-0.dtd"
   xmlns="http://www.w3.org/2000/svg"
   xmlns:svg="http://www.w3.org/2000/svg"><sodipodi:namedview
     id="namedview1"
     pagecolor="#ffffff"
     bordercolor="#000000"
     borderopacity="0.25"
     inkscape:showpageshadow="2"
     inkscape:pageopacity="0.0"
     inkscape:pagecheckerboard="0"
     inkscape:deskcolor="#d1d1d1"
     inkscape:document-units="px"
     inkscape:zoom="8"
     inkscape:cx="59.5625"
     inkscape:cy="27.3125"
     inkscape:window-width="1920"
     inkscape:window-height="1017"
     inkscape:window-x="-8"
     inkscape:window-y="-8"
     inkscape:window-maximized="1"
     inkscape:current-layer="layer1" /><defs
     id="defs1"><linearGradient
       id="swatch17"
       inkscape:swatch="solid"><stop
         style="stop-color:#353131;stop-opacity:1;"
         offset="0"
         id="stop17" /></linearGradient><inkscape:path-effect
       effect="powerclip"
       id="path-effect84"
       is_visible="true"
       lpeversion="1"
       inverse="true"
       flatten="false"
       hide_clip="false"
       message="Use fill-rule evenodd on &lt;b&gt;fill and stroke&lt;/b&gt; dialog if no flatten result after convert clip to paths." /><inkscape:path-effect
       effect="powerclip"
       id="path-effect36"
       is_visible="true"
       lpeversion="1"
       inverse="true"
       flatten="false"
       hide_clip="false"
       message="Use fill-rule evenodd on &lt;b&gt;fill and stroke&lt;/b&gt; dialog if no flatten result after convert clip to paths." /><inkscape:path-effect
       effect="powerclip"
       id="path-effect32"
       is_visible="true"
       lpeversion="1"
       inverse="true"
       flatten="false"
       hide_clip="false"
       message="Use fill-rule evenodd on &lt;b&gt;fill and stroke&lt;/b&gt; dialog if no flatten result after convert clip to paths." /><inkscape:perspective
       sodipodi:type="inkscape:persp3d"
       inkscape:vp_x="0 : -178.21616 : 1"
       inkscape:vp_y="0 : 1000 : 0"
       inkscape:vp_z="210 : -178.21616 : 1"
       inkscape:persp3d-origin="105 : -227.71617 : 1"
       id="perspective1" /><clipPath
       clipPathUnits="userSpaceOnUse"
       id="clipPath31"><path
         style="display:block;fill:#444446;fill-opacity:1;stroke:#323234;stroke-width:1.05833;stroke-linecap:round;stroke-linejoin:round;stroke-miterlimit:29;stroke-dasharray:none;stroke-opacity:1"
         d="m 200.89242,2.0944225 c -1.3801,-0.00442 -1.60668,3.8158657 -1.60668,3.8158657 h 3.18467 c 0,0 -0.20157,-3.8114587 -1.57799,-3.8158657 z"
         id="path32-9"
         sodipodi:nodetypes="sccs" /></clipPath><clipPath
       clipPathUnits="userSpaceOnUse"
       id="clipPath80"><g
         id="g84"
         style="display:block;fill:#d9d9d9;fill-opacity:1;stroke:none;stroke-width:0.999999"><path
           id="path80"
           style="display:inline;opacity:1;fill:#d9d9d9;fill-opacity:1;stroke:none;stroke-width:1.05833;stroke-linecap:round;stroke-linejoin:round;stroke-miterlimit:29;stroke-dasharray:none;stroke-opacity:1"
           d="m 207.41409,9.5141321 c 3.35858,-3.7e-6 3.47529,5.5121339 0,5.5260149 l -8.22624,0.03285 c -3.55393,0.01419 -3.43121,-5.5588565 -0.0287,-5.5588602 z"
           sodipodi:nodetypes="sssss"
           inkscape:label="Hole" /><path
           id="path81"
           style="display:inline;opacity:1;fill:#d9d9d9;fill-opacity:1;stroke:none;stroke-width:1.05833;stroke-linecap:round;stroke-linejoin:round;stroke-miterlimit:29;stroke-dasharray:none;stroke-opacity:1"
           d="m 192.55218,9.5141321 c 3.35858,-3.7e-6 3.47529,5.5121339 0,5.5260149 l -8.22624,0.03285 c -3.55394,0.01419 -3.43121,-5.5588565 -0.0287,-5.5588602 z"
           sodipodi:nodetypes="sssss"
           inkscape:label="Hole" /><path
           id="path82"
           style="display:inline;opacity:1;fill:#d9d9d9;fill-opacity:1;stroke:none;stroke-width:1.05833;stroke-linecap:round;stroke-linejoin:round;stroke-miterlimit:29;stroke-dasharray:none;stroke-opacity:1"
           d="m 177.14523,9.5141324 c 3.35858,-4e-6 3.47529,5.5121336 0,5.5260136 l -8.22624,0.03285 c -3.55394,0.01419 -3.43121,-5.5588556 -0.0287,-5.5588596 z"
           sodipodi:nodetypes="sssss"
           inkscape:label="Hole" /><path
           id="path83"
           style="display:inline;opacity:1;fill:#d9d9d9;fill-opacity:1;stroke:none;stroke-width:1.05833;stroke-linecap:round;stroke-linejoin:round;stroke-miterlimit:29;stroke-dasharray:none;stroke-opacity:1"
           d="m 162.02535,9.5141321 c 3.35858,-3.7e-6 3.47529,5.5121339 0,5.5260149 l -8.22624,0.03285 c -3.55394,0.01419 -3.43121,-5.5588565 -0.0287,-5.5588602 z"
           sodipodi:nodetypes="sssss"
           inkscape:label="Hole" /><path
           id="path84"
           style="display:inline;opacity:1;fill:#d9d9d9;fill-opacity:1;stroke:#d9d9d9;stroke-width:1.05833;stroke-linecap:round;stroke-linejoin:round;stroke-miterlimit:29;stroke-dasharray:none;stroke-opacity:1"
           d="m 216.95674,10.043246 c 3.09356,0 3.20087,4.437934 0,4.474072 l -2.35542,0.0266 c -3.27331,0.03695 -3.16046,-4.500665 -0.0264,-4.500665 z"
           sodipodi:nodetypes="sssss"
           inkscape:label="Hole" /></g></clipPath><inkscape:path-effect
       effect="powerclip"
       id="path-effect1"
       is_visible="true"
       lpeversion="1"
       inverse="true"
       flatten="false"
       hide_clip="false"
       message="Use fill-rule evenodd on &lt;b&gt;fill and stroke&lt;/b&gt; dialog if no flatten result after convert clip to paths." /><inkscape:path-effect
       effect="powerclip"
       id="path-effect65"
       is_visible="true"
       lpeversion="1"
       inverse="true"
       flatten="false"
       hide_clip="false"
       message="Use fill-rule evenodd on &lt;b&gt;fill and stroke&lt;/b&gt; dialog if no flatten result after convert clip to paths." /><inkscape:path-effect
       effect="powerclip"
       id="path-effect33"
       is_visible="true"
       lpeversion="1"
       inverse="true"
       flatten="false"
       hide_clip="false"
       message="Use fill-rule evenodd on &lt;b&gt;fill and stroke&lt;/b&gt; dialog if no flatten result after convert clip to paths." /><clipPath
       clipPathUnits="userSpaceOnUse"
       id="clipPath32"><ellipse
         style="display:none;fill:#424242;fill-opacity:1;stroke:none;stroke-width:2.11667;stroke-linecap:round;stroke-linejoin:round;stroke-miterlimit:29;stroke-dasharray:none;stroke-opacity:1;paint-order:normal"
         id="ellipse33"
         cx="157.6105"
         cy="26.437967"
         rx="3.2623587"
         ry="0.78343379" /></clipPath><clipPath
       clipPathUnits="userSpaceOnUse"
       id="clipPath64"><g
         id="g65"
         style="display:block;stroke-width:0.999999"><path
           style="opacity:1;fill:#d9d9d9;fill-opacity:1;stroke:none;stroke-width:2.11667;stroke-linecap:round;stroke-linejoin:round;stroke-miterlimit:29;stroke-dasharray:none;stroke-opacity:1"
           d="m 36.418352,17.636514 v -3.586941 c 0,-1.061291 1.05835,-2.347631 2.347632,-2.347631 h 2.589449 v 0.99749 l -0.673332,1.166248 3.595279,1.634791 h 2.458463 v 0.423178 h 4.433299 V 15.33926 h 1.428631 l 0.02079,1.428479 -0.801063,0.462494 h -5.50484 l -0.374427,0.374427 z"
           id="path64"
           sodipodi:nodetypes="ccccccccccccccccc" /><rect
           style="fill:#d9d9d9;fill-opacity:1;stroke:none;stroke-width:2.11667;stroke-linecap:round;stroke-linejoin:round;stroke-miterlimit:29;stroke-dasharray:none;stroke-opacity:1"
           id="rect64"
           width="1.0583333"
           height="4.2846022"
           x="104.95296"
           y="16.314445" /><rect
           style="display:inline;fill:#d9d9d9;fill-opacity:1;stroke:none;stroke-width:2.11667;stroke-linecap:round;stroke-linejoin:round;stroke-miterlimit:29;stroke-dasharray:none;stroke-opacity:1"
           id="rect65"
           width="1.0583333"
           height="4.2846022"
           x="137.75305"
           y="16.313532" /></g></clipPath><clipPath
       clipPathUnits="userSpaceOnUse"
       id="clipPath1"><ellipse
         style="display:block;fill:#d9d9d9;fill-opacity:1;stroke:none;stroke-width:16.557;stroke-linecap:round;stroke-linejoin:round;stroke-miterlimit:29;stroke-dasharray:none;stroke-opacity:1;paint-order:normal"
         id="ellipse1"
         cx="157.57542"
         cy="26.333157"
         rx="3.8353176"
         ry="0.98178834" /></clipPath></defs><g
     inkscape:label="Layer 1"
     inkscape:groupmode="layer"
     id="layer1"
     style="display:inline"
     transform="translate(-9.7993863,-24.683384)"><path
       style="display:inline;fill:#d9d9d9;fill-opacity:1;stroke:none;stroke-width:1.05833;stroke-linecap:round;stroke-linejoin:round;stroke-miterlimit:10.8;stroke-dasharray:none;stroke-opacity:1;paint-order:fill markers stroke"
       d="m 12.953429,27.186762 c -0.161185,0.158265 -0.108589,0.347316 0.033,0.46241 -0.03702,-0.188788 -0.02786,-0.411288 0.44715,-0.46241 z"
       id="path35"
       sodipodi:nodetypes="cccc" /><path
       style="display:inline;fill:#d9d9d9;fill-opacity:1;stroke:none;stroke-width:2.11667;stroke-linecap:round;stroke-linejoin:round;stroke-miterlimit:10.8;stroke-dasharray:none;stroke-opacity:1;paint-order:fill markers stroke"
       d="m 16.85606,27.358463 -1.494497,-0.172088 1.239671,1.32e-4 z"
       id="path15"
       sodipodi:nodetypes="cccc" /><path
       id="path10"
       style="display:inline;fill:#d9d9d9;fill-opacity:1;stroke:none;stroke-width:2.11667;stroke-linecap:round;stroke-linejoin:round;stroke-miterlimit:10.8;stroke-dasharray:none;stroke-opacity:1;paint-order:fill markers stroke"
       d="m 17.621506,25.725181 -3.2e-5,0.508709 6.011452,-0.0065 -6e-6,0.122661 0.08723,-1.15e-4 v -0.537951 z m 6.653873,0.0925 v 0.53175 l 0.41296,-5.16e-4 V 25.8244 Z"
       sodipodi:nodetypes="cccccccccccc" /><path
       style="display:inline;fill:#d9d9d9;fill-opacity:1;stroke:none;stroke-width:2.11667;stroke-linecap:round;stroke-linejoin:round;stroke-miterlimit:10.8;stroke-dasharray:none;stroke-opacity:1;paint-order:fill markers stroke"
       d="m 12.01354,25.923094 c 0,0 0.325278,-0.235725 0.862446,-0.235725 h 4.68515 l 0.0014,1.672883 h -0.595204 l -0.33866,-0.219948 -4.343427,-5.67e-4 C 12.229531,26.732625 12.144777,26.3522 12.01354,25.923094 Z"
       id="path9"
       sodipodi:nodetypes="cccccccc" /><path
       id="rect32"
       style="display:inline;fill:#d9d9d9;fill-opacity:1;stroke:none;stroke-width:2.11664;stroke-linecap:round;stroke-miterlimit:10.8;stroke-dasharray:none;stroke-opacity:1;paint-order:fill markers stroke"
       d="m 23.635965,26.637787 -7.88e-4,0.569199 0.16425,0.0013 v -0.570508 z m 0.699303,0 v 0.570508 h 0.123111 c 0.03962,0 0.07183,-0.03196 0.07183,-0.07183 v -0.426847 c 0,-0.03987 -0.03221,-0.07183 -0.07183,-0.07183 z"
       sodipodi:nodetypes="cccccccssssc" /><g
       id="g1"
       inkscape:label="Handle"
       style="display:inline;fill:#d9d9d9;fill-opacity:1;stroke:none;stroke-width:11.0156"
       transform="matrix(0.09591256,0,0,0.08592288,9.1751798,23.956036)"><path
         style="display:inline;fill:#d9d9d9;fill-opacity:1;stroke:none;stroke-width:23.3162;stroke-linecap:round;stroke-linejoin:round;stroke-miterlimit:10.8;stroke-dasharray:none;stroke-opacity:1;paint-order:fill markers stroke"
         d="m 7.8378551,53.488277 c 2.5973849,0.07664 7.3749359,-0.187451 10.8259389,-0.594489 0.987144,-0.116431 1.056526,-1.440502 0.250311,-1.564442 0.408426,-6.123017 3.862358,-9.26123 7.869143,-13.094382 l 1.497918,0.535695 c 1.656003,-0.212147 2.173294,-0.418434 3.666535,-1.444391 0,0 -1.898831,-12.679071 -3.315051,-13.87658 -1.205497,-1.019329 -5.976171,3.112239 -5.961693,3.960657 l -0.01784,1.688279 C 12.619064,37.027443 8.049166,45.04985 6.5080792,52.064634 c 0.062578,0.766577 0.7995884,1.407998 1.3297759,1.423643 z"
         id="path1"
         sodipodi:nodetypes="ssccccscccs" /></g><path
       style="display:inline;fill:#d9d9d9;fill-opacity:1;stroke:none;stroke-width:1.05833;stroke-linecap:round;stroke-linejoin:round;stroke-miterlimit:10.8;stroke-dasharray:none;stroke-opacity:1;paint-order:fill markers stroke"
       d="m 25.317983,25.696109 c 0,0 0.0043,-0.0525 -0.114237,-0.07378 -0.118631,-0.02129 -0.0778,-0.186617 -0.223738,-0.190283 -0.0043,0.148338 -0.08869,0.178943 -0.704513,0.197707 v 0.106464 l 0.413456,-0.0057 c 0.120593,-0.03231 0.03955,-0.03438 0.629032,-0.03438 z"
       id="path11"
       sodipodi:nodetypes="czccccc" /><path
       style="display:inline;fill:#d9d9d9;fill-opacity:1;stroke:#d9d9d9;stroke-width:0.105833;stroke-linecap:round;stroke-linejoin:round;stroke-miterlimit:10.8;stroke-dasharray:none;stroke-opacity:1;paint-order:fill markers stroke"
       d="m 13.826653,25.691525 h 2.4955"
       id="path13" /><g
       id="g30"
       inkscape:label="Pump"
       transform="matrix(0.09591256,0,0,0.08592288,9.1751798,23.870006)"
       style="fill:#d9d9d9;fill-opacity:1;stroke:none;stroke-width:11.0156"><path
         style="display:inline;fill:#d9d9d9;fill-opacity:1;stroke:none;stroke-width:23.3162;stroke-linecap:round;stroke-linejoin:round;stroke-miterlimit:10.8;stroke-dasharray:none;stroke-opacity:1;paint-order:fill markers stroke"
         d="m 88.055719,28.23093 v 13.097735 h 35.841771 l 2.03546,-0.796483 h 24.33701 v -12.38975 z"
         id="path14" /></g><path
       style="display:inline;fill:#d9d9d9;fill-opacity:1;stroke:none;stroke-width:2.11667;stroke-linecap:round;stroke-linejoin:round;stroke-miterlimit:10.8;stroke-dasharray:none;stroke-opacity:1;paint-order:fill markers stroke"
       d="m 12.338138,27.186756 c 0.355781,0.08541 0.24654,0.634473 0.594284,0.634473 h 0.762253 c 0.373961,0 0.270826,-0.634467 0.978323,-0.634467 h -1.056349 c 0.280408,0 0.291774,0.532308 0.07203,0.532308 h -0.708233 c -0.276047,0 -0.502796,-0.531385 -0.111048,-0.531385 z"
       id="path16"
       sodipodi:nodetypes="cccccsscc" /><path
       style="display:inline;fill:#d9d9d9;fill-opacity:1;stroke:none;stroke-width:2.11667;stroke-linecap:round;stroke-linejoin:round;stroke-miterlimit:10.8;stroke-dasharray:none;stroke-opacity:1;paint-order:fill markers stroke"
       d="m 23.794938,25.768244 h 0.398941 v 0.822157 h 0.0764 v 0.644116 h -0.398941 v -0.65172 h 0.101857 v -0.199391 h -0.178251 z"
       id="path12"
       sodipodi:nodetypes="ccccccccccc" /><rect
       style="display:inline;fill:#d9d9d9;fill-opacity:1;stroke:none;stroke-width:2.11667;stroke-linecap:round;stroke-linejoin:round;stroke-miterlimit:10.8;stroke-dasharray:none;stroke-opacity:1;paint-order:fill markers stroke"
       id="rect17"
       width="0.87081426"
       height="0.62371504"
       x="24.769663"
       y="25.768036"
       rx="0.11922987"
       ry="0.10681158" /><path
       style="fill:#d9d9d9;fill-opacity:1;stroke:#d9d9d9;stroke-width:0.105833;stroke-linecap:round;stroke-miterlimit:10.8;stroke-dasharray:none;stroke-opacity:1;paint-order:fill markers stroke"
       d="m 15.37573,25.668641 v -0.08366"
       id="path32" /><path
       style="fill:#d9d9d9;fill-opacity:1;stroke:#d9d9d9;stroke-width:0.211667;stroke-linecap:round;stroke-miterlimit:10.8;stroke-dasharray:none;stroke-opacity:1;paint-order:fill markers stroke"
       d="m 24.562729,26.932126 h 0.216159"
       id="path33" /><path
       style="fill:#d9d9d9;fill-opacity:1;stroke:#d9d9d9;stroke-width:0.105833;stroke-linecap:round;stroke-miterlimit:10.8;stroke-dasharray:none;stroke-opacity:1;paint-order:fill markers stroke"
       d="m 24.756335,26.948702 v 0.187296"
       id="path34" /><path
       style="display:inline;opacity:1;fill:#d9d9d9;fill-opacity:1;stroke:none;stroke-width:1.4902;stroke-linecap:round;stroke-linejoin:round;stroke-miterlimit:10.8;stroke-dasharray:none;stroke-opacity:1;paint-order:fill markers stroke"
       d="m 292.34711,106.9439 14.7909,-4.79644 -4.20334,-1.87496 7.1971,-6.600734 -17.11603,8.961204 4.20171,0.77786 z"
       id="path37"
       sodipodi:nodetypes="ccccccc"
       transform="matrix(0.07101934,0,0,0.07101934,5.4018359,18.030877)" /><path
       style="display:inline;opacity:1;fill:#d9d9d9;fill-opacity:1;stroke:none;stroke-width:1.4902;stroke-linecap:round;stroke-linejoin:round;stroke-miterlimit:10.8;stroke-dasharray:none;stroke-opacity:1;paint-order:fill markers stroke"
       d="m 292.18994,123.81976 14.7909,4.79644 -4.20334,1.87496 7.1971,6.60073 -17.11603,-8.9612 4.20171,-0.77786 z"
       id="path37-3"
       sodipodi:nodetypes="ccccccc"
       transform="matrix(0.07101934,0,0,0.07101934,5.4018359,18.030877)" /><path
       style="display:inline;opacity:1;fill:#d9d9d9;fill-opacity:1;stroke:none;stroke-width:29.804;stroke-linecap:round;stroke-linejoin:round;stroke-miterlimit:29;stroke-dasharray:none;stroke-opacity:1"
       d="m 291.26114,110.42104 36.88095,-9.76393 -6.17698,5.95899 11.82396,1.24622 -13.62493,5.85989 16.41491,3.74335 -14.69743,3.01475 9.4504,5.49061 -9.67695,0.26401 3.2279,5.37157 -33.14117,-11.41742 1.7559,-1.45755 -1.73574,-1.41606 1.37332,-1.30079 -1.67723,-1.26083 1.79972,-1.00679 -1.71992,-0.86745 1.54501,-1.04286 z"
       id="path36"
       sodipodi:nodetypes="ccccccccccccccccccc"
       inkscape:label="Muzzle Flash"
       transform="matrix(0.07101934,0,0,0.07101934,5.4018359,18.030877)" /></g></svg>
