<?xml version="1.0" encoding="UTF-8" standalone="no"?>
<svg
   version="1.1"
   viewBox="0 0 124.858 16.006001"
   fill="none"
   stroke="none"
   stroke-linecap="square"
   stroke-miterlimit="10"
   id="svg24"
   sodipodi:docname="ks23m_world.svg"
   xml:space="preserve"
   inkscape:version="1.3.2 (091e20e, 2023-11-25, custom)"
   width="124.858"
   height="16.006001"
   xmlns:inkscape="http://www.inkscape.org/namespaces/inkscape"
   xmlns:sodipodi="http://sodipodi.sourceforge.net/DTD/sodipodi-0.dtd"
   xmlns="http://www.w3.org/2000/svg"
   xmlns:svg="http://www.w3.org/2000/svg"><defs
     id="defs24"><linearGradient
       id="swatch17"
       inkscape:swatch="solid"><stop
         style="stop-color:#353131;stop-opacity:1;"
         offset="0"
         id="stop17" /></linearGradient></defs><sodipodi:namedview
     id="namedview24"
     pagecolor="#ffffff"
     bordercolor="#000000"
     borderopacity="0.25"
     inkscape:showpageshadow="2"
     inkscape:pageopacity="0.0"
     inkscape:pagecheckerboard="0"
     inkscape:deskcolor="#d1d1d1"
     inkscape:zoom="11.374628"
     inkscape:cx="84.530237"
     inkscape:cy="2.2418316"
     inkscape:window-width="1920"
     inkscape:window-height="1017"
     inkscape:window-x="-8"
     inkscape:window-y="-8"
     inkscape:window-maximized="1"
     inkscape:current-layer="svg24" /><clipPath
     id="p.0"><path
       d="M 0,0 H 650 V 90 H 0 Z"
       clip-rule="nonzero"
       id="path1" /></clipPath><g
     clip-path="url(#p.0)"
     id="g24"
     transform="matrix(0.19237475,0,0,0.19381001,-0.09268314,-0.71865719)"
     style="stroke-width:7.76836;stroke-dasharray:none"><path
       fill="#5e6147"
       d="m 410.65735,18.060421 v 0 c 0,-5.781423 4.68677,-10.468191 10.4682,-10.468191 h 145.45166 c 2.77631,0 5.43897,1.1028957 7.4021,3.066062 1.9632,1.963166 3.06604,4.625792 3.06604,7.402129 v 53.87916 c 0,5.781418 -4.68677,10.468185 -10.46814,10.468185 H 421.12555 v 0 c -5.78143,0 -10.4682,-4.686768 -10.4682,-10.468185 z"
       fill-rule="evenodd"
       id="path3"
       style="fill:#573f0d;fill-opacity:1;stroke-width:7.76836;stroke-dasharray:none" /><path
       stroke="#1a1b13"
       stroke-width="45"
       stroke-linejoin="round"
       stroke-linecap="butt"
       d="m 410.65735,18.060421 v 0 c 0,-5.781423 4.68677,-10.468191 10.4682,-10.468191 h 145.45166 c 2.77631,0 5.43897,1.1028957 7.4021,3.066062 1.9632,1.963166 3.06604,4.625792 3.06604,7.402129 v 53.87916 c 0,5.781418 -4.68677,10.468185 -10.46814,10.468185 H 421.12555 v 0 c -5.78143,0 -10.4682,-4.686768 -10.4682,-10.468185 z"
       fill-rule="evenodd"
       id="path4"
       style="stroke:#281d06;stroke-width:7.76836;stroke-dasharray:none;stroke-opacity:1" /><path
       fill="#333333"
       d="M 400.72064,61.126778 V 28.943131 c 0,-7.1e-5 3e-5,-1.39e-4 9e-5,-1.89e-4 3e-5,-5.1e-5 1.2e-4,-7.8e-5 1.8e-4,-7.8e-5 l 243.00851,2.67e-4 c 1.05188,0 1.90461,0.852732 1.90461,1.904629 v 28.37439 c 0,1.051899 -0.85273,1.904629 -1.90461,1.904629 H 400.72063 v 0 c -1.5e-4,0 -2.7e-4,-1.19e-4 -2.7e-4,-2.67e-4 z"
       fill-rule="evenodd"
       id="path5"
       style="stroke-width:7.76836;stroke-dasharray:none" /><path
       stroke="#171617"
       stroke-width="45"
       stroke-linejoin="round"
       stroke-linecap="butt"
       d="M 400.72064,61.126778 V 28.943131 c 0,-7.1e-5 3e-5,-1.39e-4 9e-5,-1.89e-4 3e-5,-5.1e-5 1.2e-4,-7.8e-5 1.8e-4,-7.8e-5 l 243.00851,2.67e-4 c 1.05188,0 1.90461,0.852732 1.90461,1.904629 v 28.37439 c 0,1.051899 -0.85273,1.904629 -1.90461,1.904629 H 400.72063 v 0 c -1.5e-4,0 -2.7e-4,-1.19e-4 -2.7e-4,-2.67e-4 z"
       fill-rule="evenodd"
       id="path6"
       style="stroke-width:7.76836;stroke-dasharray:none" /><path
       fill="#5e6147"
       d="m 4.3659644,45.00134 v 0 c 0,-11.435513 9.2703146,-20.70583 20.7058296,-20.70583 h 87.550546 v 0 c 5.49153,0 10.75814,2.181501 14.64123,6.064598 3.8831,3.883095 6.0646,9.149704 6.0646,14.641232 v 0 0 c 0,11.435516 -9.27031,20.70583 -20.70583,20.70583 H 25.071794 c -11.435514,0 -20.7058296,-9.270313 -20.7058296,-20.70583 z"
       fill-rule="evenodd"
       id="path7"
       style="fill:#573f0d;fill-opacity:1;stroke-width:7.76836;stroke-dasharray:none" /><path
       stroke="#1a1b13"
       stroke-width="45"
       stroke-linejoin="round"
       stroke-linecap="butt"
       d="m 4.3659644,45.00134 v 0 c 0,-11.435513 9.2703146,-20.70583 20.7058296,-20.70583 h 87.550546 v 0 c 5.49153,0 10.75814,2.181501 14.64123,6.064598 3.8831,3.883095 6.0646,9.149704 6.0646,14.641232 v 0 0 c 0,11.435516 -9.27031,20.70583 -20.70583,20.70583 H 25.071794 c -11.435514,0 -20.7058296,-9.270313 -20.7058296,-20.70583 z"
       fill-rule="evenodd"
       id="path8"
       style="stroke:#281d06;stroke-width:7.76836;stroke-dasharray:none;stroke-opacity:1" /><path
       fill="#4a4a4a"
       d="m 138.7302,44.993645 v 0 0 c 0,-8.454727 3.35863,-16.563171 9.33702,-22.541567 5.97839,-5.978396 14.08684,-9.337022 22.54157,-9.337022 h 235.43675 c 2.08386,0 3.77316,1.689297 3.77316,3.773148 V 73.09908 c 0,2.083855 -1.6893,3.773148 -3.77316,3.773148 H 170.60879 v 0 c -17.60607,0 -31.87859,-14.272526 -31.87859,-31.878586 z"
       fill-rule="evenodd"
       id="path9"
       style="stroke-width:7.76836;stroke-dasharray:none" /><path
       stroke="#171617"
       stroke-width="45"
       stroke-linejoin="round"
       stroke-linecap="butt"
       d="m 138.7302,44.993645 v 0 0 c 0,-8.454727 3.35863,-16.563171 9.33702,-22.541567 5.97839,-5.978396 14.08684,-9.337022 22.54157,-9.337022 h 235.43675 c 2.08386,0 3.77316,1.689297 3.77316,3.773148 V 73.09908 c 0,2.083855 -1.6893,3.773148 -3.77316,3.773148 H 170.60879 v 0 c -17.60607,0 -31.87859,-14.272526 -31.87859,-31.878586 z"
       fill-rule="evenodd"
       id="path10"
       style="stroke-width:7.76836;stroke-dasharray:none" /><path
       fill="#413f41"
       d="m 112.53923,57.28718 v -24.575775 0 c 0,-5.018793 1.99371,-9.832031 5.54253,-13.380854 3.54882,-3.548823 8.36207,-5.542532 13.38086,-5.542532 H 150.386 c 2.9e-4,0 5.2e-4,2.34e-4 5.2e-4,5.21e-4 l -5.2e-4,62.422028 v 0 c 0,2.82e-4 -2.3e-4,5.19e-4 -5.2e-4,5.19e-4 l -18.92286,-5.19e-4 v 0 c -10.4511,0 -18.92339,-8.47229 -18.92339,-18.92339 z"
       fill-rule="evenodd"
       id="path11"
       style="fill:#573f0d;fill-opacity:1;stroke-width:7.76836;stroke-dasharray:none" /><path
       stroke="#171617"
       stroke-width="45"
       stroke-linejoin="round"
       stroke-linecap="butt"
       d="m 112.53923,57.28718 v -24.575775 0 c 0,-5.018793 1.99371,-9.832031 5.54253,-13.380854 3.54882,-3.548823 8.36207,-5.542532 13.38086,-5.542532 H 150.386 c 2.9e-4,0 5.2e-4,2.34e-4 5.2e-4,5.21e-4 l -5.2e-4,62.422028 v 0 c 0,2.82e-4 -2.3e-4,5.19e-4 -5.2e-4,5.19e-4 l -18.92286,-5.19e-4 v 0 c -10.4511,0 -18.92339,-8.47229 -18.92339,-18.92339 z"
       fill-rule="evenodd"
       id="path12"
       style="stroke:#281d06;stroke-width:7.76836;stroke-dasharray:none;stroke-opacity:1" /><path
       fill="#333333"
       d="m 335.249,57.993248 h 44.10721 c 2.28055,0 4.46768,0.905945 6.08029,2.518536 1.61258,1.612594 2.51853,3.799739 2.51853,6.080295 v 8.598824 c 0,2.82e-4 -2.2e-4,5.11e-4 -4.9e-4,5.11e-4 l -61.30438,-5.11e-4 v 0 c -2.8e-4,0 -5.2e-4,-2.29e-4 -5.2e-4,-5.11e-4 l 5.2e-4,-8.598312 v 0 c 0,-4.749004 3.84982,-8.598831 8.59884,-8.598832 z"
       fill-rule="evenodd"
       id="path13"
       style="stroke-width:7.76836;stroke-dasharray:none" /><path
       stroke="#171617"
       stroke-width="45"
       stroke-linejoin="round"
       stroke-linecap="butt"
       d="m 335.249,57.993248 h 44.10721 c 2.28055,0 4.46768,0.905945 6.08029,2.518536 1.61258,1.612594 2.51853,3.799739 2.51853,6.080295 v 8.598824 c 0,2.82e-4 -2.2e-4,5.11e-4 -4.9e-4,5.11e-4 l -61.30438,-5.11e-4 v 0 c -2.8e-4,0 -5.2e-4,-2.29e-4 -5.2e-4,-5.11e-4 l 5.2e-4,-8.598312 v 0 c 0,-4.749004 3.84982,-8.598831 8.59884,-8.598832 z"
       fill-rule="evenodd"
       id="path14"
       style="stroke-width:7.76836;stroke-dasharray:none" /><path
       fill="#333333"
       d="M 168.25656,52.57161 V 37.433095 c 0,-3.4e-5 2e-5,-6.5e-5 5e-5,-9.2e-5 1e-5,-2.2e-5 4e-5,-3.4e-5 9e-5,-3.4e-5 l 149.53438,1.26e-4 c 0.49478,0 0.89587,0.401108 0.89587,0.895897 v 13.346722 c 0,0.494789 -0.40109,0.895897 -0.89587,0.895897 H 168.25656 v 0 c -6e-5,0 -1.2e-4,-5.7e-5 -1.2e-4,-1.26e-4 z"
       fill-rule="evenodd"
       id="path15"
       style="stroke-width:7.76836;stroke-dasharray:none" /><path
       stroke="#171617"
       stroke-width="45"
       stroke-linejoin="round"
       stroke-linecap="butt"
       d="M 168.25656,52.57161 V 37.433095 c 0,-3.4e-5 2e-5,-6.5e-5 5e-5,-9.2e-5 1e-5,-2.2e-5 4e-5,-3.4e-5 9e-5,-3.4e-5 l 149.53438,1.26e-4 c 0.49478,0 0.89587,0.401108 0.89587,0.895897 v 13.346722 c 0,0.494789 -0.40109,0.895897 -0.89587,0.895897 H 168.25656 v 0 c -6e-5,0 -1.2e-4,-5.7e-5 -1.2e-4,-1.26e-4 z"
       fill-rule="evenodd"
       id="path16"
       style="stroke-width:7.76836;stroke-dasharray:none" /><path
       fill="#171617"
       d="m 306.04517,36.082478 v 0 0 c 0.89798,0 1.75916,0.35672 2.39413,0.991688 0.63495,0.634964 0.99167,1.496162 0.99167,2.394138 v 11.118111 c 0,1.869942 -1.51587,3.385826 -3.3858,3.385826 v 0 0 c -1.86996,0 -3.38583,-1.515884 -3.38583,-3.385826 v -11.118111 0 c 0,-1.869938 1.51587,-3.385826 3.38583,-3.385826 z"
       fill-rule="evenodd"
       id="path17"
       style="stroke-width:7.76836;stroke-dasharray:none" /><path
       fill="#171617"
       d="m 292.42416,36.09013 v 0 0 c 0.89798,0 1.75916,0.35672 2.39413,0.991684 0.63498,0.634964 0.9917,1.496162 0.9917,2.394142 v 11.118111 c 0,1.869938 -1.5159,3.385826 -3.38583,3.385826 v 0 0 c -1.86993,0 -3.38583,-1.515888 -3.38583,-3.385826 v -11.118111 0 c 0,-1.869942 1.5159,-3.385826 3.38583,-3.385826 z"
       fill-rule="evenodd"
       id="path18"
       style="stroke-width:7.76836;stroke-dasharray:none" /><path
       fill="#171617"
       d="m 278.80316,36.09013 v 0 0 c 0.89798,0 1.75919,0.35672 2.39413,0.991684 0.63498,0.634964 0.9917,1.496162 0.9917,2.394142 v 11.118111 c 0,1.869938 -1.5159,3.385826 -3.38583,3.385826 v 0 0 c -1.86993,0 -3.38583,-1.515888 -3.38583,-3.385826 v -11.118111 0 c 0,-1.869942 1.5159,-3.385826 3.38583,-3.385826 z"
       fill-rule="evenodd"
       id="path19"
       style="stroke-width:7.76836;stroke-dasharray:none" /><path
       fill="#171617"
       d="m 265.18216,36.09013 v 0 0 c 0.89798,0 1.75919,0.35672 2.39413,0.991684 0.63498,0.634964 0.9917,1.496162 0.9917,2.394142 v 11.118111 c 0,1.869938 -1.5159,3.385826 -3.38583,3.385826 v 0 0 c -1.86993,0 -3.38583,-1.515888 -3.38583,-3.385826 v -11.118111 0 c 0,-1.869942 1.5159,-3.385826 3.38583,-3.385826 z"
       fill-rule="evenodd"
       id="path20"
       style="stroke-width:7.76836;stroke-dasharray:none" /><path
       fill="#171617"
       d="m 251.56116,36.082478 v 0 0 c 0.89798,0 1.75919,0.35672 2.39415,0.991688 0.63496,0.634964 0.99168,1.496162 0.99168,2.394138 v 11.118111 c 0,1.869942 -1.51588,3.385826 -3.38583,3.385826 v 0 0 c -1.86993,0 -3.38582,-1.515884 -3.38582,-3.385826 v -11.118111 0 c 0,-1.869938 1.51589,-3.385826 3.38582,-3.385826 z"
       fill-rule="evenodd"
       id="path21"
       style="stroke-width:7.76836;stroke-dasharray:none" /><path
       fill="#171617"
       d="m 237.9383,28.451443 v 0 0 c 0.89798,0 1.75917,0.35672 2.39415,0.991686 0.63496,0.634966 0.99168,1.496164 0.99168,2.394142 v 26.393702 c 0,1.869938 -1.51588,3.385826 -3.38583,3.385826 v 0 0 c -1.86993,0 -3.38582,-1.515888 -3.38582,-3.385826 v -26.393702 0 c 0,-1.869942 1.51589,-3.385828 3.38582,-3.385828 z"
       fill-rule="evenodd"
       id="path22"
       style="stroke-width:7.76836;stroke-dasharray:none" /><path
       fill="#333333"
       d="m 597.8192,22.30814 h 21.81262 c 6e-5,0 6e-5,1.9e-5 1.2e-4,5.3e-5 0,3.5e-5 7e-5,8.1e-5 7e-5,1.28e-4 l -1.9e-4,44.124504 c 0,0.712921 -0.57794,1.290863 -1.29089,1.290863 h -19.23084 c -0.71295,0 -1.29089,-0.577942 -1.29089,-1.290863 v -44.124683 0 c 0,-1.01e-4 6e-5,-1.81e-4 1.8e-4,-1.81e-4 z"
       fill-rule="evenodd"
       id="path23"
       style="fill:#333333;fill-opacity:1;stroke-width:7.76836;stroke-dasharray:none" /><path
       stroke="#171617"
       stroke-width="45"
       stroke-linejoin="round"
       stroke-linecap="butt"
       d="m 597.8192,22.30814 h 21.81262 c 6e-5,0 6e-5,1.9e-5 1.2e-4,5.3e-5 0,3.5e-5 7e-5,8.1e-5 7e-5,1.28e-4 l -1.9e-4,44.124504 c 0,0.712921 -0.57794,1.290863 -1.29089,1.290863 h -19.23084 c -0.71295,0 -1.29089,-0.577942 -1.29089,-1.290863 v -44.124683 0 c 0,-1.01e-4 6e-5,-1.81e-4 1.8e-4,-1.81e-4 z"
       fill-rule="evenodd"
       id="path24"
       style="stroke-width:7.76836;stroke-dasharray:none" /></g></svg>
